# xmcd
#
# Track frame offsets:
#	150
#	9932
#	22039
#	34756
#	46458
#	58659
#	70286
#	83447
#	96238
#	109793
#	123756
#	136702
#	145504
#	158483
#	167951
#	179974
#	192644
#
# Disc length: 2737 seconds
#
# Revision: 0
# Processed by: cddbd v1.5.2PL0 Copyright (c) Steve Scherf et al.
# Submitted via: EasyCDDAExtractor 10.0.3.1
#
DISCID=e20aaf11
DTITLE=Merle Haggard - Pride In What I Am
DYEAR=1969
DGENRE=Country
TTITLE0=Lookin' For My Mind (Previously Unissued Bonus Track)
TTITLE1=You're Not Home Yet (Previously Unissued Bonus Track)
TTITLE2=I Take A Lot Of Pride In What I Am
TTITLE3=Who'll Buy The Wine
TTITLE4=The Day The Rains Came
TTITLE5=It Meant Goodbye To Me When You Said Hello To Him
TTITLE6=I Can't Hold Myself In Line
TTITLE7=I'm Bringin' Home Good News
TTITLE8=Keep Me From Cryin' Today
TTITLE9=I Just Want To Look At You One More Time
TTITLE10=Somewhere On Skid Row
TTITLE11=I'm Free
TTITLE12=California Blues
TTITLE13=I Think We're Livin' In The Good Old Days
TTITLE14=California On My Mind (Previously Unissued Bonus Track)
TTITLE15=White Line Fever (Bonus Track)
TTITLE16=Streets Of Berlin (Bonus Track)
EXTD=
EXTT0=
EXTT1=
EXTT2=
EXTT3=
EXTT4=
EXTT5=
EXTT6=
EXTT7=
EXTT8=
EXTT9=
EXTT10=
EXTT11=
EXTT12=
EXTT13=
EXTT14=
EXTT15=
EXTT16=
PLAYORDER=
